<?xml version="1.0" encoding="UTF-8"?>
<svg width="56px" height="56px" viewBox="0 0 56 56" version="1.1" xmlns="http://www.w3.org/2000/svg" xmlns:xlink="http://www.w3.org/1999/xlink">
    <!-- Generator: Sketch 52.6 (67491) - http://www.bohemiancoding.com/sketch -->
    <title>dt</title>
    <desc>Created with Sketch.</desc>
    <g id="Page-1" stroke="none" stroke-width="1" fill="none" fill-rule="evenodd">
        <g id="ddnsto1" transform="translate(-150.000000, -1250.000000)">
            <g id="dt" transform="translate(150.000000, 1250.000000)">
                <rect id="Rectangle-Copy" fill="#FFFFFF" opacity="0.0261579241" x="0" y="0" width="56" height="56"></rect>
                <path d="M29.8241758,6 L36.5494505,6 L36.5494505,40.2954202 C36.5494505,41.0101416 37.1288468,41.5895378 37.8435682,41.5895378 L50,41.5895378 L50,49.955735 L35.0006464,49.955735 C32.1417606,49.955735 29.8241758,47.6381502 29.8241758,44.7792644 L29.8241758,6 Z M20.2612003,6 L27.2451395,6 L27.2451395,44.7792644 C27.2451395,47.6381502 24.9275547,49.955735 22.0686689,49.955735 L10.1764706,49.955735 C7.31758482,49.955735 5,47.6381502 5,44.7792644 L5,20.7819707 C5,17.9230849 7.31758482,15.6055001 10.1764706,15.6055001 L17.8571429,15.6055001 L17.8571429,23.351979 L13.0287059,23.3172285 C12.314003,23.3120848 11.730452,23.8872961 11.7253082,24.6019991 C11.7252859,24.6051035 11.7252747,24.6082081 11.7252747,24.6113126 L11.7252747,40.6052793 C11.7252747,41.3200007 12.3046709,41.899397 13.0193924,41.899397 L18.9670827,41.899397 C19.6818041,41.899397 20.2612003,41.3200007 20.2612003,40.6052793 L20.2612003,6 Z M50,15.5613688 L50,23.3078477 L39.3871513,23.4627772 L39.3871513,15.5613688 L50,15.5613688 Z" id="Combined-Shape-Copy" stroke="#249CFC" fill="#0F7BF8" fill-rule="nonzero"></path>
            </g>
        </g>
    </g>
</svg>