<?xml version="1.0" encoding="UTF-8"?>
<svg width="76px" height="76px" viewBox="0 0 76 76" version="1.1" xmlns="http://www.w3.org/2000/svg" xmlns:xlink="http://www.w3.org/1999/xlink">
    <!-- Generator: Sketch 52.6 (67491) - http://www.bohemiancoding.com/sketch -->
    <title>@1xfolder nav copy 3</title>
    <desc>Created with Sketch.</desc>
    <defs>
        <linearGradient x1="50%" y1="0%" x2="50%" y2="100%" id="linearGradient-1">
            <stop stop-color="#FCE881" offset="0%"></stop>
            <stop stop-color="#EEB400" offset="100%"></stop>
        </linearGradient>
    </defs>
    <g id="Page-1" stroke="none" stroke-width="1" fill="none" fill-rule="evenodd">
        <g id="文件管理6" transform="translate(-21.000000, -142.000000)" fill-rule="nonzero">
            <g id="Group-2-Copy" transform="translate(1.000000, 142.000000)">
                <g id="Group">
                    <g id="folder-nav-copy-3" transform="translate(20.000000, 0.000000)">
                        <rect id="Rectangle" fill="#FFFFFF" opacity="0.01" x="0" y="0" width="76" height="76"></rect>
                        <path d="M32.4838709,15.3225807 C32.6064516,12.5032258 30.2774193,9.19354841 28.9290322,9.19354841 L3.5548387,9.19354841 C0.980645145,11.2774193 1.1032258,15.3225807 1.1032258,15.3225807 L32.4838709,15.3225807 Z" id="Path" fill="#ECC049"></path>
                        <path d="M1.3483871,15.2 L1.22580645,57.367742 C1.22580645,62.0258064 5.88387094,66.8064517 10.5419355,66.8064516 L65.4580645,66.8064516 C70.116129,66.8064516 74.7741936,62.1483871 74.7741936,57.367742 L74.7741936,24.7612903 C74.7741936,20.1032258 70.1161291,15.3225806 65.4580645,15.3225807 L38.6129033,15.3225807 L1.3483871,15.2 Z" id="Path" fill="url(#linearGradient-1)"></path>
                        <path d="M48,34.3735365 L48,52.8843561 C48,54.6047108 46.6405104,56 44.9631655,56 C43.2863267,56 41.9263309,54.6047108 41.9263309,52.8843561 L41.9263309,37.4891804 L33.5338218,37.4891804 C33.4705544,37.4891804 33.4093116,37.4829492 33.3470565,37.4793142 L33.0497841,43.4047497 C33.1317786,43.6160942 33.0654744,43.8580759 32.8888319,43.9951643 C32.7121893,44.1322526 32.4667119,44.131214 32.2905755,43.9920486 L20.192839,34.4498698 C20.0713656,34.3527655 20,34.205811 20,34.048471 C20,33.891131 20.0713656,33.7426186 20.192839,33.6475915 L32.2905755,24.1043741 C32.379656,24.0342721 32.4844268,24 32.5912221,24 C32.6959929,24 32.7997514,24.0332335 32.8888319,24.1012584 C33.0659806,24.2383468 33.1317786,24.4798092 33.0497841,24.6927115 L33.1957209,31.0101989 L33.1957209,31.2781442 C33.3075776,31.2656817 33.4189282,31.2578926 33.5338218,31.2578926 L44.9631655,31.2578926 C46.6410165,31.2578926 48,32.6526625 48,34.3735365 Z" id="Path" fill="#FFFFFF" transform="translate(34.000000, 40.000000) scale(-1, 1) rotate(-270.000000) translate(-34.000000, -40.000000) "></path>
                    </g>
                </g>
            </g>
        </g>
    </g>
</svg>