<?xml version="1.0" encoding="UTF-8"?>
<svg width="56px" height="56px" viewBox="0 0 56 56" version="1.1" xmlns="http://www.w3.org/2000/svg" xmlns:xlink="http://www.w3.org/1999/xlink">
    <!-- Generator: Sketch 52.6 (67491) - http://www.bohemiancoding.com/sketch -->
    <title>我的</title>
    <desc>Created with Sketch.</desc>
    <g id="Page-1" stroke="none" stroke-width="1" fill="none" fill-rule="evenodd">
        <g id="我" transform="translate(-552.000000, -1250.000000)">
            <g id="我的" transform="translate(552.000000, 1250.000000)">
                <rect id="Rectangle" fill="#FFFFFF" opacity="0.0261579241" x="0" y="0" width="56" height="56"></rect>
                <path d="M34.1135965,30.8429913 C40.5101497,33.1110586 45.5133817,38.3516876 47.4790098,44.9198435 L47.5,45.063195 L47.5,50.3828952 C47.5,50.9992275 47.0020202,51.5 46.3863015,51.5 L7.6136985,51.4999999 C6.99801971,51.4999999 6.5,50.999216 6.5,50.3828952 L6.5,45.0631949 L6.52099076,44.9198417 C8.48624714,38.3530146 13.4879097,33.1130585 19.8827007,30.8442974 C15.9010058,28.3877435 13.3892262,24.009793 13.3892262,19.180638 C13.3892262,11.6256085 19.4810394,5.5 26.9971105,5.5 C34.5131643,5.5 40.6049949,11.6256425 40.6049949,19.180638 C40.6049949,24.0088925 38.0941343,28.3861586 34.1135965,30.8429913 Z" id="Shape" stroke="#249CFC" fill="#0F7BF8" fill-rule="nonzero"></path>
            </g>
        </g>
    </g>
</svg>