<?xml version="1.0" encoding="UTF-8"?>
<svg width="108px" height="108px" viewBox="0 0 108 108" version="1.1" xmlns="http://www.w3.org/2000/svg" xmlns:xlink="http://www.w3.org/1999/xlink">
    <!-- Generator: Sketch 52.6 (67491) - http://www.bohemiancoding.com/sketch -->
    <title>路由器icon1</title>
    <desc>Created with Sketch.</desc>
    <defs>
        <linearGradient x1="32.8957436%" y1="9.41225093%" x2="73.4822756%" y2="114.173295%" id="linearGradient-1">
            <stop stop-color="#209BFE" offset="0%"></stop>
            <stop stop-color="#0D66AC" offset="100%"></stop>
        </linearGradient>
    </defs>
    <g id="Page-1" stroke="none" stroke-width="1" fill="none" fill-rule="evenodd">
        <g id="ddnsto1" transform="translate(-61.000000, -140.000000)">
            <g id="单元1" transform="translate(25.000000, 140.000000)">
                <g id="路由器icon1" transform="translate(36.000000, 0.000000)">
                    <g id="Group">
                        <rect id="Rectangle" fill="#000000" opacity="0" x="0" y="0" width="108" height="108"></rect>
                        <path d="M0,54 C3.65231026e-15,83.8233765 24.1766235,108 54,108 C83.8233765,108 108,83.8233765 108,54 C108,24.1766235 83.8233765,1.82615513e-15 54,0 C24.1766235,-1.82615513e-15 3.65231026e-15,24.1766235 0,54 Z" id="Path" fill="url(#linearGradient-1)"></path>
                        <path d="M15.4285714,53.2285714 L15.4285714,74.8285714 L92.5714286,74.8285714 L92.5714286,53.2285714 L15.4285714,53.2285714 Z M29.6228571,67.1142857 C27.9186641,67.1142857 26.5371428,65.7327643 26.5371428,64.0285714 C26.5371428,62.3243784 27.9186641,60.9428571 29.6228571,60.9428571 C31.32705,60.9428571 32.7085714,62.3243784 32.7085714,64.0285714 C32.7085714,65.7327643 31.32705,67.1142857 29.6228571,67.1142857 Z M40.2377143,67.1142857 C38.5335214,67.1142857 37.152,65.7327643 37.152,64.0285714 C37.152,62.3243784 38.5335214,60.9428571 40.2377143,60.9428571 C41.9419073,60.9428571 43.3234286,62.3243784 43.3234286,64.0285714 C43.3234389,64.8496339 42.9962207,65.6368447 42.4141958,66.2159739 C41.8321709,66.7951032 41.043338,67.118391 40.2222857,67.1142857 L40.2377143,67.1142857 Z M50.8371429,67.1142857 C49.589088,67.1142857 48.4639245,66.3624756 47.9863145,65.2094232 C47.5087046,64.0563708 47.7727052,62.7291501 48.6552133,61.8466419 C49.5377214,60.9641338 50.8649421,60.7001332 52.0179945,61.1777431 C53.1710469,61.655353 53.9228571,62.7805165 53.9228571,64.0285714 C53.9228571,65.7327643 52.5413358,67.1142856 50.8371429,67.1142857 Z" id="Shape" fill="#FFFFFF" fill-rule="nonzero"></path>
                        <path d="M73.2702857,41.0862857 L76.356,41.0862857 L76.356,56.5148571 L73.2702857,56.5148571 L73.2702857,41.0862857 Z M68.904,40.3148571 C68.5271283,40.3236309 68.1715246,40.1406766 67.9595485,39.828947 C67.7475723,39.5172174 67.7081541,39.119257 67.8548571,38.772 C68.9044644,35.8597077 71.6484199,33.9022375 74.7437602,33.8576261 C77.8391005,33.8130148 80.6383283,35.6905944 81.7714286,38.5714286 C81.9119871,38.9434952 81.8433733,39.362286 81.5914334,39.6700465 C81.3394935,39.977807 80.9425032,40.1277812 80.5500048,40.0634751 C80.1575064,39.999169 79.8291299,39.7303523 79.6885714,39.3582857 C78.9055039,37.311946 76.9268006,35.9733317 74.7360221,36.0078321 C72.5452436,36.0423326 70.6096721,37.442589 69.8914286,39.5125714 C69.7631873,39.9606675 69.3688588,40.2810595 68.904,40.3148571 Z" id="Shape" fill="#FFFFFF" fill-rule="nonzero"></path>
                        <path d="M63.9205714,36.0565714 C63.524676,36.0546286 63.1597343,35.842133 62.9626285,35.4987873 C62.7655226,35.1554417 62.7660451,34.7331425 62.964,34.3902857 C65.4102491,30.1566686 69.9191181,27.5388848 74.8085969,27.5134849 C79.6980758,27.488085 84.2338984,30.0588833 86.724,34.2668571 C86.9279476,34.6086072 86.9340815,35.033202 86.7400911,35.3807009 C86.5461007,35.7281998 86.1814577,35.9458093 85.7835196,35.9515581 C85.3855816,35.9573068 85.0148047,35.7503215 84.8108571,35.4085714 C82.7327438,31.8719508 78.9314913,29.7064066 74.8295421,29.7222933 C70.7275928,29.73818 66.9432283,31.9331031 64.8925714,35.4857143 C64.6963516,35.8384652 64.3242238,36.0570165 63.9205714,36.0565714 Z" id="Path" fill="#FFFFFF"></path>
                        <path d="M59.0142857,32.0142857 C58.6040323,32.0150468 58.2267574,31.7896318 58.0330266,31.428001 C57.8392958,31.0663702 57.8606517,30.6274031 58.0885714,30.2862857 C61.7667232,24.6509648 68.0257947,21.2357394 74.7551152,21.1922844 C81.4844356,21.1488293 87.7870913,24.4829366 91.5377143,30.0702857 C91.8828134,30.5815436 91.748115,31.2757581 91.2368572,31.6208572 C90.7255993,31.9659562 90.0313848,31.8312579 89.6862857,31.32 C86.3465459,26.3634293 80.7478637,23.4071383 74.7712367,23.4443566 C68.7946097,23.4815748 63.2331797,26.5073631 59.9554286,31.5051429 C59.7495072,31.8247233 59.3944554,32.0168005 59.0142857,32.0142857 Z" id="Path" fill="#FFFFFF"></path>
                    </g>
                </g>
            </g>
        </g>
    </g>
</svg>